REM DIRINDEX 1\2\4,1\2\5,1\2\6,1\3\7,1\3\8
REM DIRNAME cjc128,folder01,folder02,folder03,folder04,folder05,folder06,folder07
TITLE ""
FILE "013_Lesson 11_Output_Stage.mp3" MP3
  TRACK 01 AUDIO
    TITLE "0:"
    INDEX 01 00:00:00
  TRACK 02 AUDIO
    TITLE "8:cjc128_2900"
    INDEX 01 00:00:09
  TRACK 03 AUDIO
    TITLE "0:"
    INDEX 01 00:03:17
  TRACK 04 AUDIO
    TITLE "8:cjc128_2901"
    INDEX 01 00:04:38
  TRACK 05 AUDIO
    TITLE "0:"
    INDEX 01 00:06:33
  TRACK 06 AUDIO
    TITLE "7:cjc128_2902"
    INDEX 01 00:07:19
  TRACK 07 AUDIO
    TITLE "0:"
    INDEX 01 00:09:47
  TRACK 08 AUDIO
    TITLE "8:cjc128_2903"
    INDEX 01 00:12:54
  TRACK 09 AUDIO
    TITLE "0:"
    INDEX 01 00:14:43
  TRACK 10 AUDIO
    TITLE "7:cjc128_2904"
    INDEX 01 00:15:28
  TRACK 11 AUDIO
    TITLE "0:"
    INDEX 01 00:18:21
  TRACK 12 AUDIO
    TITLE "8:cjc128_2905"
    INDEX 01 00:21:49
  TRACK 13 AUDIO
    TITLE "0:"
    INDEX 01 00:23:44
  TRACK 14 AUDIO
    TITLE "7:cjc128_2906"
    INDEX 01 00:24:20
  TRACK 15 AUDIO
    TITLE "0:"
    INDEX 01 00:26:62
  TRACK 16 AUDIO
    TITLE "8:cjc128_2907"
    INDEX 01 00:29:72
  TRACK 17 AUDIO
    TITLE "0:"
    INDEX 01 00:31:69
  TRACK 18 AUDIO
    TITLE "7:cjc128_2908"
    INDEX 01 00:32:54
  TRACK 19 AUDIO
    TITLE "0:"
    INDEX 01 00:35:45
  TRACK 20 AUDIO
    TITLE "8:cjc128_2909"
    INDEX 01 00:39:03
  TRACK 21 AUDIO
    TITLE "0:"
    INDEX 01 00:40:70
  TRACK 22 AUDIO
    TITLE "7:cjc128_2910"
    INDEX 01 00:41:51
  TRACK 23 AUDIO
    TITLE "0:"
    INDEX 01 00:44:01
  TRACK 24 AUDIO
    TITLE "8:cjc128_2911"
    INDEX 01 00:47:05
  TRACK 25 AUDIO
    TITLE "0:"
    INDEX 01 00:48:63
  TRACK 26 AUDIO
    TITLE "7:cjc128_2912"
    INDEX 01 00:49:47
  TRACK 27 AUDIO
    TITLE "0:"
    INDEX 01 00:52:55
  TRACK 28 AUDIO
    TITLE "8:cjc128_2913"
    INDEX 01 00:56:14
  TRACK 29 AUDIO
    TITLE "0:"
    INDEX 01 00:58:09
  TRACK 30 AUDIO
    TITLE "7:cjc128_2914"
    INDEX 01 00:58:62
  TRACK 31 AUDIO
    TITLE "0:"
    INDEX 01 01:01:25
  TRACK 32 AUDIO
    TITLE "8:cjc128_2915"
    INDEX 01 01:04:15
  TRACK 33 AUDIO
    TITLE "0:"
    INDEX 01 01:05:62
  TRACK 34 AUDIO
    TITLE "7:cjc128_2916"
    INDEX 01 01:06:45
  TRACK 35 AUDIO
    TITLE "0:"
    INDEX 01 01:09:40
  TRACK 36 AUDIO
    TITLE "8:cjc128_2917"
    INDEX 01 01:13:18
  TRACK 37 AUDIO
    TITLE "0:"
    INDEX 01 01:15:07
  TRACK 38 AUDIO
    TITLE "7:cjc128_2918"
    INDEX 01 01:15:64
  TRACK 39 AUDIO
    TITLE "0:"
    INDEX 01 01:19:13
  TRACK 40 AUDIO
    TITLE "8:cjc128_2919"
    INDEX 01 01:22:66
  TRACK 41 AUDIO
    TITLE "0:"
    INDEX 01 01:24:65
  TRACK 42 AUDIO
    TITLE "7:cjc128_2920"
    INDEX 01 01:25:51
  TRACK 43 AUDIO
    TITLE "0:"
    INDEX 01 01:28:04
  TRACK 44 AUDIO
    TITLE "8:cjc128_2921"
    INDEX 01 01:31:10
  TRACK 45 AUDIO
    TITLE "0:"
    INDEX 01 01:32:74
  TRACK 46 AUDIO
    TITLE "7:cjc128_2922"
    INDEX 01 01:33:58
  TRACK 47 AUDIO
    TITLE "0:"
    INDEX 01 01:35:53
  TRACK 48 AUDIO
    TITLE "8:cjc128_2923"
    INDEX 01 01:38:16
  TRACK 49 AUDIO
    TITLE "0:"
    INDEX 01 01:40:07
  TRACK 50 AUDIO
    TITLE "7:cjc128_2924"
    INDEX 01 01:40:62
  TRACK 51 AUDIO
    TITLE "0:"
    INDEX 01 01:42:35
  TRACK 52 AUDIO
    TITLE "8:cjc128_2925"
    INDEX 01 01:44:36
  TRACK 53 AUDIO
    TITLE "0:"
    INDEX 01 01:46:25
  TRACK 54 AUDIO
    TITLE "7:cjc128_2926"
    INDEX 01 01:47:07
  TRACK 55 AUDIO
    TITLE "0:"
    INDEX 01 01:49:18
  TRACK 56 AUDIO
    TITLE "8:cjc128_2927"
    INDEX 01 01:51:66
  TRACK 57 AUDIO
    TITLE "0:"
    INDEX 01 01:53:61
  TRACK 58 AUDIO
    TITLE "7:cjc128_2928"
    INDEX 01 01:54:48
  TRACK 59 AUDIO
    TITLE "0:"
    INDEX 01 01:56:28
  TRACK 60 AUDIO
    TITLE "8:cjc128_2929"
    INDEX 01 01:58:46
  TRACK 61 AUDIO
    TITLE "0:"
    INDEX 01 02:00:37
  TRACK 62 AUDIO
    TITLE "7:cjc128_2930"
    INDEX 01 02:01:19
  TRACK 63 AUDIO
    TITLE "0:"
    INDEX 01 02:03:39
  TRACK 64 AUDIO
    TITLE "8:cjc128_2931"
    INDEX 01 02:06:10
  TRACK 65 AUDIO
    TITLE "0:"
    INDEX 01 02:07:71
  TRACK 66 AUDIO
    TITLE "7:cjc128_2932"
    INDEX 01 02:08:50
  TRACK 67 AUDIO
    TITLE "0:"
    INDEX 01 02:10:38
  TRACK 68 AUDIO
    TITLE "8:cjc128_2933"
    INDEX 01 02:12:64
  TRACK 69 AUDIO
    TITLE "0:"
    INDEX 01 02:14:55
  TRACK 70 AUDIO
    TITLE "7:cjc128_2934"
    INDEX 01 02:15:31
  TRACK 71 AUDIO
    TITLE "0:"
    INDEX 01 02:17:44
  TRACK 72 AUDIO
    TITLE "8:cjc128_2935"
    INDEX 01 02:20:12
  TRACK 73 AUDIO
    TITLE "0:"
    INDEX 01 02:21:55
  TRACK 74 AUDIO
    TITLE "7:cjc128_2936"
    INDEX 01 02:22:41
  TRACK 75 AUDIO
    TITLE "0:"
    INDEX 01 02:24:47
  TRACK 76 AUDIO
    TITLE "8:cjc128_2937"
    INDEX 01 02:27:38
  TRACK 77 AUDIO
    TITLE "0:"
    INDEX 01 02:29:21
  TRACK 78 AUDIO
    TITLE "7:cjc128_2938"
    INDEX 01 02:30:05
  TRACK 79 AUDIO
    TITLE "0:"
    INDEX 01 02:32:24
  TRACK 80 AUDIO
    TITLE "8:cjc128_2939"
    INDEX 01 02:34:69
  TRACK 81 AUDIO
    TITLE "0:"
    INDEX 01 02:36:59
  TRACK 82 AUDIO
    TITLE "7:cjc128_2940"
    INDEX 01 02:37:42
  TRACK 83 AUDIO
    TITLE "0:"
    INDEX 01 02:39:16
  TRACK 84 AUDIO
    TITLE "8:cjc128_2941"
    INDEX 01 02:41:36
  TRACK 85 AUDIO
    TITLE "0:"
    INDEX 01 02:43:27
  TRACK 86 AUDIO
    TITLE "7:cjc128_2942"
    INDEX 01 02:44:11
  TRACK 87 AUDIO
    TITLE "0:"
    INDEX 01 02:46:71
  TRACK 88 AUDIO
    TITLE "8:cjc128_2943"
    INDEX 01 02:50:37
  TRACK 89 AUDIO
    TITLE "0:"
    INDEX 01 02:52:30
  TRACK 90 AUDIO
    TITLE "7:cjc128_2944"
    INDEX 01 02:53:14
  TRACK 91 AUDIO
    TITLE "0:"
    INDEX 01 02:55:34
  TRACK 92 AUDIO
    TITLE "8:cjc128_2945"
    INDEX 01 02:58:17
  TRACK 93 AUDIO
    TITLE "0:"
    INDEX 01 03:00:20
  TRACK 94 AUDIO
    TITLE "7:cjc128_2946"
    INDEX 01 03:01:08
  TRACK 95 AUDIO
    TITLE "0:"
    INDEX 01 03:03:36
